<mxfile host="app.diagrams.net" modified="2022-09-09T11:44:20.016Z" agent="5.0 (Windows NT 10.0; Win64; x64) AppleWebKit/537.36 (KHTML, like Gecko) Chrome/105.0.0.0 Safari/537.36" etag="p9kF1jCeYUBxAiRuFdz-" version="20.3.0" type="github">
  <diagram name="Page-1" id="e56a1550-8fbb-45ad-956c-1786394a9013">
    <mxGraphModel dx="640" dy="691" grid="1" gridSize="10" guides="1" tooltips="1" connect="1" arrows="1" fold="1" page="1" pageScale="1" pageWidth="1100" pageHeight="850" background="none" math="0" shadow="0">
      <root>
        <mxCell id="0" />
        <mxCell id="1" parent="0" />
        <mxCell id="E3y60lkcEBOWgc4NYitt-1" style="edgeStyle=orthogonalEdgeStyle;rounded=0;orthogonalLoop=1;jettySize=auto;html=1;exitX=0.5;exitY=1;exitDx=0;exitDy=0;" parent="1" source="E3y60lkcEBOWgc4NYitt-2" target="E3y60lkcEBOWgc4NYitt-21" edge="1">
          <mxGeometry relative="1" as="geometry" />
        </mxCell>
        <mxCell id="E3y60lkcEBOWgc4NYitt-2" value="ScriptableCard&#xa;ScriptableObject" style="swimlane;fontStyle=1;childLayout=stackLayout;horizontal=1;startSize=40;horizontalStack=0;resizeParent=1;resizeParentMax=0;resizeLast=0;collapsible=1;marginBottom=0;" parent="1" vertex="1">
          <mxGeometry x="523" y="420" width="140" height="70" as="geometry" />
        </mxCell>
        <mxCell id="E3y60lkcEBOWgc4NYitt-3" value="hash, title, ..." style="text;strokeColor=none;fillColor=none;align=left;verticalAlign=middle;spacingLeft=4;spacingRight=4;overflow=hidden;points=[[0,0.5],[1,0.5]];portConstraint=eastwest;rotatable=0;" parent="E3y60lkcEBOWgc4NYitt-2" vertex="1">
          <mxGeometry y="40" width="140" height="30" as="geometry" />
        </mxCell>
        <mxCell id="E3y60lkcEBOWgc4NYitt-4" value="PlayerManager" style="swimlane;fontStyle=1;childLayout=stackLayout;horizontal=1;startSize=30;horizontalStack=0;resizeParent=1;resizeParentMax=0;resizeLast=0;collapsible=1;marginBottom=0;" parent="1" vertex="1">
          <mxGeometry x="470" y="810" width="140" height="90" as="geometry" />
        </mxCell>
        <mxCell id="E3y60lkcEBOWgc4NYitt-5" value="cards = CardCollection" style="text;strokeColor=none;fillColor=none;align=left;verticalAlign=middle;spacingLeft=4;spacingRight=4;overflow=hidden;points=[[0,0.5],[1,0.5]];portConstraint=eastwest;rotatable=0;" parent="E3y60lkcEBOWgc4NYitt-4" vertex="1">
          <mxGeometry y="30" width="140" height="30" as="geometry" />
        </mxCell>
        <mxCell id="E3y60lkcEBOWgc4NYitt-6" value="DrawCard" style="text;strokeColor=none;fillColor=none;align=left;verticalAlign=middle;spacingLeft=4;spacingRight=4;overflow=hidden;points=[[0,0.5],[1,0.5]];portConstraint=eastwest;rotatable=0;" parent="E3y60lkcEBOWgc4NYitt-4" vertex="1">
          <mxGeometry y="60" width="140" height="30" as="geometry" />
        </mxCell>
        <mxCell id="E3y60lkcEBOWgc4NYitt-7" value="CardCollection" style="swimlane;fontStyle=1;childLayout=stackLayout;horizontal=1;startSize=30;horizontalStack=0;resizeParent=1;resizeParentMax=0;resizeLast=0;collapsible=1;marginBottom=0;" parent="1" vertex="1">
          <mxGeometry x="610" y="840" width="140" height="120" as="geometry" />
        </mxCell>
        <mxCell id="E3y60lkcEBOWgc4NYitt-8" value="deck" style="text;strokeColor=none;fillColor=none;align=left;verticalAlign=middle;spacingLeft=4;spacingRight=4;overflow=hidden;points=[[0,0.5],[1,0.5]];portConstraint=eastwest;rotatable=0;" parent="E3y60lkcEBOWgc4NYitt-7" vertex="1">
          <mxGeometry y="30" width="140" height="30" as="geometry" />
        </mxCell>
        <mxCell id="E3y60lkcEBOWgc4NYitt-9" value="hand    " style="text;strokeColor=none;fillColor=none;align=left;verticalAlign=middle;spacingLeft=4;spacingRight=4;overflow=hidden;points=[[0,0.5],[1,0.5]];portConstraint=eastwest;rotatable=0;" parent="E3y60lkcEBOWgc4NYitt-7" vertex="1">
          <mxGeometry y="60" width="140" height="30" as="geometry" />
        </mxCell>
        <mxCell id="E3y60lkcEBOWgc4NYitt-10" value="discard" style="text;strokeColor=none;fillColor=none;align=left;verticalAlign=middle;spacingLeft=4;spacingRight=4;overflow=hidden;points=[[0,0.5],[1,0.5]];portConstraint=eastwest;rotatable=0;" parent="E3y60lkcEBOWgc4NYitt-7" vertex="1">
          <mxGeometry y="90" width="140" height="30" as="geometry" />
        </mxCell>
        <mxCell id="E3y60lkcEBOWgc4NYitt-11" value="CardInfo" style="swimlane;fontStyle=1;childLayout=stackLayout;horizontal=1;startSize=30;horizontalStack=0;resizeParent=1;resizeParentMax=0;resizeLast=0;collapsible=1;marginBottom=0;" parent="1" vertex="1">
          <mxGeometry x="610" y="960" width="140" height="120" as="geometry" />
        </mxCell>
        <mxCell id="E3y60lkcEBOWgc4NYitt-12" value="deck" style="text;strokeColor=none;fillColor=none;align=left;verticalAlign=middle;spacingLeft=4;spacingRight=4;overflow=hidden;points=[[0,0.5],[1,0.5]];portConstraint=eastwest;rotatable=0;" parent="E3y60lkcEBOWgc4NYitt-11" vertex="1">
          <mxGeometry y="30" width="140" height="30" as="geometry" />
        </mxCell>
        <mxCell id="E3y60lkcEBOWgc4NYitt-13" value="hand    " style="text;strokeColor=none;fillColor=none;align=left;verticalAlign=middle;spacingLeft=4;spacingRight=4;overflow=hidden;points=[[0,0.5],[1,0.5]];portConstraint=eastwest;rotatable=0;" parent="E3y60lkcEBOWgc4NYitt-11" vertex="1">
          <mxGeometry y="60" width="140" height="30" as="geometry" />
        </mxCell>
        <mxCell id="E3y60lkcEBOWgc4NYitt-14" value="discard" style="text;strokeColor=none;fillColor=none;align=left;verticalAlign=middle;spacingLeft=4;spacingRight=4;overflow=hidden;points=[[0,0.5],[1,0.5]];portConstraint=eastwest;rotatable=0;" parent="E3y60lkcEBOWgc4NYitt-11" vertex="1">
          <mxGeometry y="90" width="140" height="30" as="geometry" />
        </mxCell>
        <mxCell id="E3y60lkcEBOWgc4NYitt-15" value="GameManager" style="swimlane;fontStyle=1;childLayout=stackLayout;horizontal=1;startSize=30;horizontalStack=0;resizeParent=1;resizeParentMax=0;resizeLast=0;collapsible=1;marginBottom=0;" parent="1" vertex="1">
          <mxGeometry x="340" y="560" width="140" height="90" as="geometry" />
        </mxCell>
        <mxCell id="E3y60lkcEBOWgc4NYitt-16" value="SpawnPlayerDeck" style="text;strokeColor=none;fillColor=none;align=left;verticalAlign=middle;spacingLeft=4;spacingRight=4;overflow=hidden;points=[[0,0.5],[1,0.5]];portConstraint=eastwest;rotatable=0;" parent="E3y60lkcEBOWgc4NYitt-15" vertex="1">
          <mxGeometry y="30" width="140" height="30" as="geometry" />
        </mxCell>
        <mxCell id="E3y60lkcEBOWgc4NYitt-17" value="DrawCard" style="text;strokeColor=none;fillColor=none;align=left;verticalAlign=middle;spacingLeft=4;spacingRight=4;overflow=hidden;points=[[0,0.5],[1,0.5]];portConstraint=eastwest;rotatable=0;" parent="E3y60lkcEBOWgc4NYitt-15" vertex="1">
          <mxGeometry y="60" width="140" height="30" as="geometry" />
        </mxCell>
        <mxCell id="E3y60lkcEBOWgc4NYitt-18" style="edgeStyle=orthogonalEdgeStyle;rounded=0;orthogonalLoop=1;jettySize=auto;html=1;exitX=0.5;exitY=1;exitDx=0;exitDy=0;entryX=0.5;entryY=0;entryDx=0;entryDy=0;" parent="1" source="E3y60lkcEBOWgc4NYitt-21" target="E3y60lkcEBOWgc4NYitt-23" edge="1">
          <mxGeometry relative="1" as="geometry" />
        </mxCell>
        <mxCell id="E3y60lkcEBOWgc4NYitt-19" style="edgeStyle=orthogonalEdgeStyle;rounded=0;orthogonalLoop=1;jettySize=auto;html=1;exitX=0.5;exitY=1;exitDx=0;exitDy=0;entryX=0.5;entryY=0;entryDx=0;entryDy=0;" parent="1" source="E3y60lkcEBOWgc4NYitt-21" target="E3y60lkcEBOWgc4NYitt-26" edge="1">
          <mxGeometry relative="1" as="geometry" />
        </mxCell>
        <mxCell id="E3y60lkcEBOWgc4NYitt-20" style="edgeStyle=orthogonalEdgeStyle;rounded=0;orthogonalLoop=1;jettySize=auto;html=1;exitX=0.5;exitY=1;exitDx=0;exitDy=0;entryX=0.5;entryY=0;entryDx=0;entryDy=0;" parent="1" source="E3y60lkcEBOWgc4NYitt-21" target="E3y60lkcEBOWgc4NYitt-29" edge="1">
          <mxGeometry relative="1" as="geometry" />
        </mxCell>
        <mxCell id="E3y60lkcEBOWgc4NYitt-21" value="&lt;span style=&quot;text-align: left;&quot;&gt;SpawnCard&lt;/span&gt;" style="rounded=1;whiteSpace=wrap;html=1;" parent="1" vertex="1">
          <mxGeometry x="550" y="587.5" width="86" height="35" as="geometry" />
        </mxCell>
        <mxCell id="E3y60lkcEBOWgc4NYitt-22" style="edgeStyle=orthogonalEdgeStyle;rounded=0;orthogonalLoop=1;jettySize=auto;html=1;exitX=1;exitY=0.5;exitDx=0;exitDy=0;entryX=0;entryY=0.5;entryDx=0;entryDy=0;" parent="1" source="E3y60lkcEBOWgc4NYitt-16" target="E3y60lkcEBOWgc4NYitt-21" edge="1">
          <mxGeometry relative="1" as="geometry" />
        </mxCell>
        <mxCell id="E3y60lkcEBOWgc4NYitt-23" value="GameObject&#xa;Card Prefab" style="swimlane;fontStyle=1;childLayout=stackLayout;horizontal=1;startSize=40;horizontalStack=0;resizeParent=1;resizeParentMax=0;resizeLast=0;collapsible=1;marginBottom=0;" parent="1" vertex="1">
          <mxGeometry x="500" y="670" width="106" height="100" as="geometry" />
        </mxCell>
        <mxCell id="E3y60lkcEBOWgc4NYitt-24" value="UI" style="text;strokeColor=none;fillColor=none;align=left;verticalAlign=middle;spacingLeft=4;spacingRight=4;overflow=hidden;points=[[0,0.5],[1,0.5]];portConstraint=eastwest;rotatable=0;" parent="E3y60lkcEBOWgc4NYitt-23" vertex="1">
          <mxGeometry y="40" width="106" height="30" as="geometry" />
        </mxCell>
        <mxCell id="E3y60lkcEBOWgc4NYitt-25" value="Movements" style="text;strokeColor=none;fillColor=none;align=left;verticalAlign=middle;spacingLeft=4;spacingRight=4;overflow=hidden;points=[[0,0.5],[1,0.5]];portConstraint=eastwest;rotatable=0;" parent="E3y60lkcEBOWgc4NYitt-23" vertex="1">
          <mxGeometry y="70" width="106" height="30" as="geometry" />
        </mxCell>
        <mxCell id="E3y60lkcEBOWgc4NYitt-26" value="NetworkObject" style="swimlane;fontStyle=1;childLayout=stackLayout;horizontal=1;startSize=40;horizontalStack=0;resizeParent=1;resizeParentMax=0;resizeLast=0;collapsible=1;marginBottom=0;" parent="1" vertex="1">
          <mxGeometry x="606" y="670" width="106" height="70" as="geometry" />
        </mxCell>
        <mxCell id="E3y60lkcEBOWgc4NYitt-27" value="Owner" style="text;strokeColor=none;fillColor=none;align=left;verticalAlign=middle;spacingLeft=4;spacingRight=4;overflow=hidden;points=[[0,0.5],[1,0.5]];portConstraint=eastwest;rotatable=0;" parent="E3y60lkcEBOWgc4NYitt-26" vertex="1">
          <mxGeometry y="40" width="106" height="30" as="geometry" />
        </mxCell>
        <mxCell id="E3y60lkcEBOWgc4NYitt-28" style="edgeStyle=orthogonalEdgeStyle;rounded=0;orthogonalLoop=1;jettySize=auto;html=1;exitX=0.5;exitY=1;exitDx=0;exitDy=0;" parent="1" source="E3y60lkcEBOWgc4NYitt-29" target="E3y60lkcEBOWgc4NYitt-8" edge="1">
          <mxGeometry relative="1" as="geometry" />
        </mxCell>
        <mxCell id="E3y60lkcEBOWgc4NYitt-29" value="CardInfo" style="swimlane;fontStyle=1;childLayout=stackLayout;horizontal=1;startSize=40;horizontalStack=0;resizeParent=1;resizeParentMax=0;resizeLast=0;collapsible=1;marginBottom=0;" parent="1" vertex="1">
          <mxGeometry x="712" y="670" width="138" height="70" as="geometry" />
        </mxCell>
        <mxCell id="E3y60lkcEBOWgc4NYitt-30" value="Card = ScriptableCard" style="text;strokeColor=none;fillColor=none;align=left;verticalAlign=middle;spacingLeft=4;spacingRight=4;overflow=hidden;points=[[0,0.5],[1,0.5]];portConstraint=eastwest;rotatable=0;" parent="E3y60lkcEBOWgc4NYitt-29" vertex="1">
          <mxGeometry y="40" width="138" height="30" as="geometry" />
        </mxCell>
        <mxCell id="C90KK72VCtRBAQaXPwwY-1" value="" style="rounded=0;whiteSpace=wrap;html=1;fillColor=#dae8fc;strokeColor=#6c8ebf;" parent="1" vertex="1">
          <mxGeometry x="1250" y="250" width="580" height="60" as="geometry" />
        </mxCell>
        <mxCell id="C90KK72VCtRBAQaXPwwY-2" value="" style="rounded=0;whiteSpace=wrap;html=1;fillColor=#ffe6cc;strokeColor=#d79b00;" parent="1" vertex="1">
          <mxGeometry x="1250" y="190" width="580" height="60" as="geometry" />
        </mxCell>
        <mxCell id="C90KK72VCtRBAQaXPwwY-3" value="" style="rounded=0;whiteSpace=wrap;html=1;fillColor=#ffe6cc;strokeColor=#d79b00;" parent="1" vertex="1">
          <mxGeometry x="1250" y="120" width="580" height="60" as="geometry" />
        </mxCell>
        <mxCell id="C90KK72VCtRBAQaXPwwY-4" value="" style="rounded=0;whiteSpace=wrap;html=1;fillColor=#454545;strokeColor=#d79b00;" parent="1" vertex="1">
          <mxGeometry x="1250" y="180" width="580" height="10" as="geometry" />
        </mxCell>
        <mxCell id="C90KK72VCtRBAQaXPwwY-5" value="" style="rounded=0;whiteSpace=wrap;html=1;fillColor=#dae8fc;strokeColor=#6c8ebf;" parent="1" vertex="1">
          <mxGeometry x="1250" y="60" width="580" height="60" as="geometry" />
        </mxCell>
        <mxCell id="C90KK72VCtRBAQaXPwwY-6" value="Hand" style="rounded=1;whiteSpace=wrap;html=1;" parent="1" vertex="1">
          <mxGeometry x="1480" y="270" width="220" height="40" as="geometry" />
        </mxCell>
        <mxCell id="C90KK72VCtRBAQaXPwwY-7" value="Player UI" style="rounded=1;whiteSpace=wrap;html=1;" parent="1" vertex="1">
          <mxGeometry x="1250" y="270" width="110" height="40" as="geometry" />
        </mxCell>
        <mxCell id="C90KK72VCtRBAQaXPwwY-8" value="Disc" style="rounded=1;whiteSpace=wrap;html=1;" parent="1" vertex="1">
          <mxGeometry x="1370" y="270" width="40" height="40" as="geometry" />
        </mxCell>
        <mxCell id="C90KK72VCtRBAQaXPwwY-9" value="Deck" style="rounded=1;whiteSpace=wrap;html=1;" parent="1" vertex="1">
          <mxGeometry x="1420" y="270" width="40" height="40" as="geometry" />
        </mxCell>
        <mxCell id="C90KK72VCtRBAQaXPwwY-10" value="PlayZone" style="rounded=1;whiteSpace=wrap;html=1;" parent="1" vertex="1">
          <mxGeometry x="1460" y="200" width="220" height="40" as="geometry" />
        </mxCell>
        <mxCell id="C90KK72VCtRBAQaXPwwY-11" value="MoneyZone" style="rounded=1;whiteSpace=wrap;html=1;" parent="1" vertex="1">
          <mxGeometry x="1250" y="200" width="110" height="40" as="geometry" />
        </mxCell>
        <mxCell id="C90KK72VCtRBAQaXPwwY-13" value="GameManager" style="swimlane;fontStyle=0;childLayout=stackLayout;horizontal=1;startSize=30;horizontalStack=0;resizeParent=1;resizeParentMax=0;resizeLast=0;collapsible=1;marginBottom=0;fillColor=#009900;" parent="1" vertex="1">
          <mxGeometry x="1710" y="562.5" width="140" height="120" as="geometry" />
        </mxCell>
        <mxCell id="C90KK72VCtRBAQaXPwwY-14" value="GameSetup" style="text;strokeColor=none;fillColor=none;align=left;verticalAlign=middle;spacingLeft=4;spacingRight=4;overflow=hidden;points=[[0,0.5],[1,0.5]];portConstraint=eastwest;rotatable=0;" parent="C90KK72VCtRBAQaXPwwY-13" vertex="1">
          <mxGeometry y="30" width="140" height="30" as="geometry" />
        </mxCell>
        <mxCell id="C90KK72VCtRBAQaXPwwY-15" value="Item 2" style="text;strokeColor=none;fillColor=none;align=left;verticalAlign=middle;spacingLeft=4;spacingRight=4;overflow=hidden;points=[[0,0.5],[1,0.5]];portConstraint=eastwest;rotatable=0;" parent="C90KK72VCtRBAQaXPwwY-13" vertex="1">
          <mxGeometry y="60" width="140" height="30" as="geometry" />
        </mxCell>
        <mxCell id="C90KK72VCtRBAQaXPwwY-16" value="Item 3" style="text;strokeColor=none;fillColor=none;align=left;verticalAlign=middle;spacingLeft=4;spacingRight=4;overflow=hidden;points=[[0,0.5],[1,0.5]];portConstraint=eastwest;rotatable=0;" parent="C90KK72VCtRBAQaXPwwY-13" vertex="1">
          <mxGeometry y="90" width="140" height="30" as="geometry" />
        </mxCell>
        <mxCell id="C90KK72VCtRBAQaXPwwY-17" value="TurnManager" style="swimlane;fontStyle=0;childLayout=stackLayout;horizontal=1;startSize=30;horizontalStack=0;resizeParent=1;resizeParentMax=0;resizeLast=0;collapsible=1;marginBottom=0;fillColor=#009900;" parent="1" vertex="1">
          <mxGeometry x="1950" y="650" width="140" height="120" as="geometry" />
        </mxCell>
        <mxCell id="C90KK72VCtRBAQaXPwwY-18" value="Prepare" style="text;strokeColor=none;fillColor=none;align=left;verticalAlign=middle;spacingLeft=4;spacingRight=4;overflow=hidden;points=[[0,0.5],[1,0.5]];portConstraint=eastwest;rotatable=0;" parent="C90KK72VCtRBAQaXPwwY-17" vertex="1">
          <mxGeometry y="30" width="140" height="30" as="geometry" />
        </mxCell>
        <mxCell id="C90KK72VCtRBAQaXPwwY-19" value="Item 2" style="text;strokeColor=none;fillColor=none;align=left;verticalAlign=middle;spacingLeft=4;spacingRight=4;overflow=hidden;points=[[0,0.5],[1,0.5]];portConstraint=eastwest;rotatable=0;" parent="C90KK72VCtRBAQaXPwwY-17" vertex="1">
          <mxGeometry y="60" width="140" height="30" as="geometry" />
        </mxCell>
        <mxCell id="C90KK72VCtRBAQaXPwwY-20" value="Item 3" style="text;strokeColor=none;fillColor=none;align=left;verticalAlign=middle;spacingLeft=4;spacingRight=4;overflow=hidden;points=[[0,0.5],[1,0.5]];portConstraint=eastwest;rotatable=0;" parent="C90KK72VCtRBAQaXPwwY-17" vertex="1">
          <mxGeometry y="90" width="140" height="30" as="geometry" />
        </mxCell>
        <mxCell id="C90KK72VCtRBAQaXPwwY-21" value="Server Entities" style="swimlane;fontStyle=1;childLayout=stackLayout;horizontal=1;startSize=30;horizontalStack=0;resizeParent=1;resizeParentMax=0;resizeLast=0;collapsible=1;marginBottom=0;fillColor=#009900;" parent="1" vertex="1">
          <mxGeometry x="1940" y="60" width="140" height="30" as="geometry" />
        </mxCell>
        <mxCell id="C90KK72VCtRBAQaXPwwY-25" value="Player" style="swimlane;fontStyle=1;childLayout=stackLayout;horizontal=1;startSize=30;horizontalStack=0;resizeParent=1;resizeParentMax=0;resizeLast=0;collapsible=1;marginBottom=0;fillColor=#f8cecc;strokeColor=#b85450;" parent="1" vertex="1">
          <mxGeometry x="1940" y="140" width="140" height="30" as="geometry" />
        </mxCell>
        <mxCell id="LB_I5nbtP3hotRsRZlri-1" value="Kingdom" style="swimlane;fontStyle=0;childLayout=stackLayout;horizontal=1;startSize=30;horizontalStack=0;resizeParent=1;resizeParentMax=0;resizeLast=0;collapsible=1;marginBottom=0;fillColor=#dae8fc;strokeColor=#6c8ebf;" vertex="1" parent="1">
          <mxGeometry x="1950" y="365" width="160" height="120" as="geometry" />
        </mxCell>
        <mxCell id="LB_I5nbtP3hotRsRZlri-2" value="Spawn, UI KingdomCards " style="text;strokeColor=none;fillColor=none;align=left;verticalAlign=middle;spacingLeft=4;spacingRight=4;overflow=hidden;points=[[0,0.5],[1,0.5]];portConstraint=eastwest;rotatable=0;" vertex="1" parent="LB_I5nbtP3hotRsRZlri-1">
          <mxGeometry y="30" width="160" height="30" as="geometry" />
        </mxCell>
        <mxCell id="LB_I5nbtP3hotRsRZlri-3" value="Item 2" style="text;strokeColor=none;fillColor=none;align=left;verticalAlign=middle;spacingLeft=4;spacingRight=4;overflow=hidden;points=[[0,0.5],[1,0.5]];portConstraint=eastwest;rotatable=0;" vertex="1" parent="LB_I5nbtP3hotRsRZlri-1">
          <mxGeometry y="60" width="160" height="30" as="geometry" />
        </mxCell>
        <mxCell id="LB_I5nbtP3hotRsRZlri-4" value="Item 3" style="text;strokeColor=none;fillColor=none;align=left;verticalAlign=middle;spacingLeft=4;spacingRight=4;overflow=hidden;points=[[0,0.5],[1,0.5]];portConstraint=eastwest;rotatable=0;" vertex="1" parent="LB_I5nbtP3hotRsRZlri-1">
          <mxGeometry y="90" width="160" height="30" as="geometry" />
        </mxCell>
        <mxCell id="LB_I5nbtP3hotRsRZlri-5" value="Kingdom" style="rounded=1;whiteSpace=wrap;html=1;" vertex="1" parent="1">
          <mxGeometry x="1690" y="70" width="120" height="90" as="geometry" />
        </mxCell>
        <mxCell id="LB_I5nbtP3hotRsRZlri-6" value="Client Entities" style="swimlane;fontStyle=1;childLayout=stackLayout;horizontal=1;startSize=30;horizontalStack=0;resizeParent=1;resizeParentMax=0;resizeLast=0;collapsible=1;marginBottom=0;fillColor=#dae8fc;strokeColor=#6c8ebf;" vertex="1" parent="1">
          <mxGeometry x="1940" y="100" width="140" height="30" as="geometry" />
        </mxCell>
        <mxCell id="LB_I5nbtP3hotRsRZlri-7" value="SorsNetworkManager" style="swimlane;fontStyle=0;childLayout=stackLayout;horizontal=1;startSize=30;horizontalStack=0;resizeParent=1;resizeParentMax=0;resizeLast=0;collapsible=1;marginBottom=0;fillColor=#009900;" vertex="1" parent="1">
          <mxGeometry x="1450" y="562.5" width="140" height="60" as="geometry" />
        </mxCell>
        <mxCell id="LB_I5nbtP3hotRsRZlri-8" value="WaitingForPlayers" style="text;strokeColor=none;fillColor=none;align=left;verticalAlign=middle;spacingLeft=4;spacingRight=4;overflow=hidden;points=[[0,0.5],[1,0.5]];portConstraint=eastwest;rotatable=0;" vertex="1" parent="LB_I5nbtP3hotRsRZlri-7">
          <mxGeometry y="30" width="140" height="30" as="geometry" />
        </mxCell>
        <mxCell id="LB_I5nbtP3hotRsRZlri-14" style="edgeStyle=orthogonalEdgeStyle;rounded=0;orthogonalLoop=1;jettySize=auto;html=1;exitX=0.5;exitY=1;exitDx=0;exitDy=0;entryX=0;entryY=0.5;entryDx=0;entryDy=0;" edge="1" parent="1" source="LB_I5nbtP3hotRsRZlri-12" target="LB_I5nbtP3hotRsRZlri-8">
          <mxGeometry relative="1" as="geometry">
            <mxPoint x="1580" y="610" as="targetPoint" />
            <Array as="points">
              <mxPoint x="1650" y="645" />
              <mxPoint x="1430" y="645" />
              <mxPoint x="1430" y="607" />
            </Array>
          </mxGeometry>
        </mxCell>
        <mxCell id="LB_I5nbtP3hotRsRZlri-16" style="edgeStyle=orthogonalEdgeStyle;rounded=0;orthogonalLoop=1;jettySize=auto;html=1;exitX=1;exitY=0.5;exitDx=0;exitDy=0;entryX=0;entryY=0.5;entryDx=0;entryDy=0;" edge="1" parent="1" source="LB_I5nbtP3hotRsRZlri-12" target="C90KK72VCtRBAQaXPwwY-14">
          <mxGeometry relative="1" as="geometry" />
        </mxCell>
        <mxCell id="LB_I5nbtP3hotRsRZlri-12" value="All players" style="rhombus;whiteSpace=wrap;html=1;fillColor=#fff2cc;strokeColor=#d6b656;" vertex="1" parent="1">
          <mxGeometry x="1610" y="587.5" width="80" height="40" as="geometry" />
        </mxCell>
        <mxCell id="LB_I5nbtP3hotRsRZlri-13" style="edgeStyle=orthogonalEdgeStyle;rounded=0;orthogonalLoop=1;jettySize=auto;html=1;exitX=1;exitY=0.5;exitDx=0;exitDy=0;entryX=0;entryY=0.5;entryDx=0;entryDy=0;" edge="1" parent="1" source="LB_I5nbtP3hotRsRZlri-8" target="LB_I5nbtP3hotRsRZlri-12">
          <mxGeometry relative="1" as="geometry" />
        </mxCell>
        <mxCell id="LB_I5nbtP3hotRsRZlri-17" value="&lt;b&gt;T&lt;/b&gt;" style="text;html=1;strokeColor=none;fillColor=none;align=center;verticalAlign=middle;whiteSpace=wrap;rounded=0;" vertex="1" parent="1">
          <mxGeometry x="1660" y="577.5" width="60" height="30" as="geometry" />
        </mxCell>
        <mxCell id="LB_I5nbtP3hotRsRZlri-18" value="&lt;b&gt;F&lt;/b&gt;" style="text;html=1;strokeColor=none;fillColor=none;align=center;verticalAlign=middle;whiteSpace=wrap;rounded=0;" vertex="1" parent="1">
          <mxGeometry x="1600" y="620" width="60" height="30" as="geometry" />
        </mxCell>
        <mxCell id="LB_I5nbtP3hotRsRZlri-19" style="edgeStyle=orthogonalEdgeStyle;rounded=0;orthogonalLoop=1;jettySize=auto;html=1;exitX=1;exitY=0.5;exitDx=0;exitDy=0;entryX=0;entryY=0.5;entryDx=0;entryDy=0;" edge="1" parent="1" source="C90KK72VCtRBAQaXPwwY-14" target="C90KK72VCtRBAQaXPwwY-18">
          <mxGeometry relative="1" as="geometry" />
        </mxCell>
        <mxCell id="LB_I5nbtP3hotRsRZlri-20" style="edgeStyle=orthogonalEdgeStyle;rounded=0;orthogonalLoop=1;jettySize=auto;html=1;exitX=1;exitY=0.5;exitDx=0;exitDy=0;entryX=0;entryY=0.5;entryDx=0;entryDy=0;" edge="1" parent="1" source="C90KK72VCtRBAQaXPwwY-14" target="LB_I5nbtP3hotRsRZlri-2">
          <mxGeometry relative="1" as="geometry">
            <mxPoint x="1910" y="410" as="targetPoint" />
          </mxGeometry>
        </mxCell>
        <mxCell id="LB_I5nbtP3hotRsRZlri-21" value="PlayerManager" style="swimlane;fontStyle=0;childLayout=stackLayout;horizontal=1;startSize=30;horizontalStack=0;resizeParent=1;resizeParentMax=0;resizeLast=0;collapsible=1;marginBottom=0;fillColor=#009900;" vertex="1" parent="1">
          <mxGeometry x="1950" y="502.5" width="140" height="120" as="geometry" />
        </mxCell>
        <mxCell id="LB_I5nbtP3hotRsRZlri-22" value="DrawCards" style="text;strokeColor=none;fillColor=none;align=left;verticalAlign=middle;spacingLeft=4;spacingRight=4;overflow=hidden;points=[[0,0.5],[1,0.5]];portConstraint=eastwest;rotatable=0;" vertex="1" parent="LB_I5nbtP3hotRsRZlri-21">
          <mxGeometry y="30" width="140" height="30" as="geometry" />
        </mxCell>
        <mxCell id="LB_I5nbtP3hotRsRZlri-23" value="Item 2" style="text;strokeColor=none;fillColor=none;align=left;verticalAlign=middle;spacingLeft=4;spacingRight=4;overflow=hidden;points=[[0,0.5],[1,0.5]];portConstraint=eastwest;rotatable=0;" vertex="1" parent="LB_I5nbtP3hotRsRZlri-21">
          <mxGeometry y="60" width="140" height="30" as="geometry" />
        </mxCell>
        <mxCell id="LB_I5nbtP3hotRsRZlri-24" value="Item 3" style="text;strokeColor=none;fillColor=none;align=left;verticalAlign=middle;spacingLeft=4;spacingRight=4;overflow=hidden;points=[[0,0.5],[1,0.5]];portConstraint=eastwest;rotatable=0;" vertex="1" parent="LB_I5nbtP3hotRsRZlri-21">
          <mxGeometry y="90" width="140" height="30" as="geometry" />
        </mxCell>
        <mxCell id="LB_I5nbtP3hotRsRZlri-25" style="edgeStyle=orthogonalEdgeStyle;rounded=0;orthogonalLoop=1;jettySize=auto;html=1;exitX=1;exitY=0.5;exitDx=0;exitDy=0;entryX=0;entryY=0.5;entryDx=0;entryDy=0;" edge="1" parent="1" source="C90KK72VCtRBAQaXPwwY-14" target="LB_I5nbtP3hotRsRZlri-22">
          <mxGeometry relative="1" as="geometry" />
        </mxCell>
        <mxCell id="LB_I5nbtP3hotRsRZlri-26" value="TurnManager State Machine" style="swimlane;" vertex="1" parent="1">
          <mxGeometry x="1170" y="840" width="470" height="840" as="geometry" />
        </mxCell>
        <mxCell id="LB_I5nbtP3hotRsRZlri-33" style="edgeStyle=orthogonalEdgeStyle;rounded=0;orthogonalLoop=1;jettySize=auto;html=1;exitX=0.5;exitY=1;exitDx=0;exitDy=0;entryX=0.5;entryY=0;entryDx=0;entryDy=0;" edge="1" parent="LB_I5nbtP3hotRsRZlri-26" source="LB_I5nbtP3hotRsRZlri-27" target="LB_I5nbtP3hotRsRZlri-32">
          <mxGeometry relative="1" as="geometry" />
        </mxCell>
        <mxCell id="LB_I5nbtP3hotRsRZlri-27" value="Prepare" style="shape=hexagon;perimeter=hexagonPerimeter2;whiteSpace=wrap;html=1;fixedSize=1;" vertex="1" parent="LB_I5nbtP3hotRsRZlri-26">
          <mxGeometry x="120" y="70" width="110" height="40" as="geometry" />
        </mxCell>
        <mxCell id="LB_I5nbtP3hotRsRZlri-29" style="edgeStyle=orthogonalEdgeStyle;rounded=0;orthogonalLoop=1;jettySize=auto;html=1;exitX=1;exitY=0.5;exitDx=0;exitDy=0;entryX=0;entryY=0.5;entryDx=0;entryDy=0;" edge="1" parent="LB_I5nbtP3hotRsRZlri-26" source="LB_I5nbtP3hotRsRZlri-28" target="LB_I5nbtP3hotRsRZlri-27">
          <mxGeometry relative="1" as="geometry" />
        </mxCell>
        <mxCell id="LB_I5nbtP3hotRsRZlri-28" value="" style="ellipse;whiteSpace=wrap;html=1;aspect=fixed;fillColor=#454545;" vertex="1" parent="LB_I5nbtP3hotRsRZlri-26">
          <mxGeometry x="20" y="75" width="30" height="30" as="geometry" />
        </mxCell>
        <mxCell id="LB_I5nbtP3hotRsRZlri-31" value="&lt;b&gt;GameSetup&lt;/b&gt;" style="text;html=1;strokeColor=none;fillColor=none;align=center;verticalAlign=middle;whiteSpace=wrap;rounded=0;" vertex="1" parent="LB_I5nbtP3hotRsRZlri-26">
          <mxGeometry x="60" y="50" width="60" height="30" as="geometry" />
        </mxCell>
        <mxCell id="LB_I5nbtP3hotRsRZlri-36" style="edgeStyle=orthogonalEdgeStyle;rounded=0;orthogonalLoop=1;jettySize=auto;html=1;exitX=0.5;exitY=1;exitDx=0;exitDy=0;entryX=0.5;entryY=0;entryDx=0;entryDy=0;" edge="1" parent="LB_I5nbtP3hotRsRZlri-26" source="LB_I5nbtP3hotRsRZlri-32" target="LB_I5nbtP3hotRsRZlri-34">
          <mxGeometry relative="1" as="geometry" />
        </mxCell>
        <mxCell id="LB_I5nbtP3hotRsRZlri-32" value="PhaseSelection" style="shape=hexagon;perimeter=hexagonPerimeter2;whiteSpace=wrap;html=1;fixedSize=1;" vertex="1" parent="LB_I5nbtP3hotRsRZlri-26">
          <mxGeometry x="120" y="130" width="110" height="40" as="geometry" />
        </mxCell>
        <mxCell id="LB_I5nbtP3hotRsRZlri-37" style="edgeStyle=orthogonalEdgeStyle;rounded=0;orthogonalLoop=1;jettySize=auto;html=1;exitX=0;exitY=0.5;exitDx=0;exitDy=0;entryX=0;entryY=0.5;entryDx=0;entryDy=0;startArrow=none;" edge="1" parent="LB_I5nbtP3hotRsRZlri-26" source="LB_I5nbtP3hotRsRZlri-38" target="LB_I5nbtP3hotRsRZlri-32">
          <mxGeometry relative="1" as="geometry" />
        </mxCell>
        <mxCell id="LB_I5nbtP3hotRsRZlri-41" style="edgeStyle=orthogonalEdgeStyle;rounded=0;orthogonalLoop=1;jettySize=auto;html=1;exitX=1;exitY=0.5;exitDx=0;exitDy=0;entryX=0;entryY=0.5;entryDx=0;entryDy=0;" edge="1" parent="LB_I5nbtP3hotRsRZlri-26" source="LB_I5nbtP3hotRsRZlri-34" target="LB_I5nbtP3hotRsRZlri-40">
          <mxGeometry relative="1" as="geometry" />
        </mxCell>
        <mxCell id="LB_I5nbtP3hotRsRZlri-34" value="All" style="rhombus;whiteSpace=wrap;html=1;fillColor=#fff2cc;strokeColor=#d6b656;" vertex="1" parent="LB_I5nbtP3hotRsRZlri-26">
          <mxGeometry x="150" y="190" width="50" height="40" as="geometry" />
        </mxCell>
        <mxCell id="LB_I5nbtP3hotRsRZlri-35" value="&lt;b&gt;Player selected&lt;/b&gt;" style="text;html=1;strokeColor=none;fillColor=none;align=center;verticalAlign=middle;whiteSpace=wrap;rounded=0;" vertex="1" parent="LB_I5nbtP3hotRsRZlri-26">
          <mxGeometry x="175" y="167" width="100" height="30" as="geometry" />
        </mxCell>
        <mxCell id="LB_I5nbtP3hotRsRZlri-38" value="&lt;b&gt;F&lt;/b&gt;" style="text;html=1;strokeColor=none;fillColor=none;align=center;verticalAlign=middle;whiteSpace=wrap;rounded=0;" vertex="1" parent="LB_I5nbtP3hotRsRZlri-26">
          <mxGeometry x="100" y="170" width="20" height="30" as="geometry" />
        </mxCell>
        <mxCell id="LB_I5nbtP3hotRsRZlri-39" value="" style="edgeStyle=orthogonalEdgeStyle;rounded=0;orthogonalLoop=1;jettySize=auto;html=1;exitX=0;exitY=0.5;exitDx=0;exitDy=0;entryX=0;entryY=0.5;entryDx=0;entryDy=0;endArrow=none;" edge="1" parent="LB_I5nbtP3hotRsRZlri-26" source="LB_I5nbtP3hotRsRZlri-34" target="LB_I5nbtP3hotRsRZlri-38">
          <mxGeometry relative="1" as="geometry">
            <mxPoint x="1380" y="1050" as="sourcePoint" />
            <mxPoint x="1350" y="990" as="targetPoint" />
            <Array as="points">
              <mxPoint x="80" y="210" />
              <mxPoint x="80" y="185" />
            </Array>
          </mxGeometry>
        </mxCell>
        <mxCell id="LB_I5nbtP3hotRsRZlri-45" style="edgeStyle=orthogonalEdgeStyle;rounded=0;orthogonalLoop=1;jettySize=auto;html=1;exitX=0.5;exitY=1;exitDx=0;exitDy=0;entryX=0.5;entryY=0;entryDx=0;entryDy=0;" edge="1" parent="LB_I5nbtP3hotRsRZlri-26" source="LB_I5nbtP3hotRsRZlri-40" target="LB_I5nbtP3hotRsRZlri-44">
          <mxGeometry relative="1" as="geometry" />
        </mxCell>
        <mxCell id="LB_I5nbtP3hotRsRZlri-40" value="NextPhase" style="shape=hexagon;perimeter=hexagonPerimeter2;whiteSpace=wrap;html=1;fixedSize=1;" vertex="1" parent="LB_I5nbtP3hotRsRZlri-26">
          <mxGeometry x="250" y="190" width="110" height="40" as="geometry" />
        </mxCell>
        <mxCell id="LB_I5nbtP3hotRsRZlri-42" value="&lt;b&gt;T&lt;/b&gt;" style="text;html=1;strokeColor=none;fillColor=none;align=center;verticalAlign=middle;whiteSpace=wrap;rounded=0;" vertex="1" parent="LB_I5nbtP3hotRsRZlri-26">
          <mxGeometry x="210" y="210" width="20" height="30" as="geometry" />
        </mxCell>
        <mxCell id="LB_I5nbtP3hotRsRZlri-43" value="Draw I" style="shape=hexagon;perimeter=hexagonPerimeter2;whiteSpace=wrap;html=1;fixedSize=1;" vertex="1" parent="LB_I5nbtP3hotRsRZlri-26">
          <mxGeometry x="120" y="245" width="110" height="40" as="geometry" />
        </mxCell>
        <mxCell id="LB_I5nbtP3hotRsRZlri-46" style="edgeStyle=orthogonalEdgeStyle;rounded=0;orthogonalLoop=1;jettySize=auto;html=1;exitX=0;exitY=0.5;exitDx=0;exitDy=0;entryX=1;entryY=0.5;entryDx=0;entryDy=0;" edge="1" parent="LB_I5nbtP3hotRsRZlri-26" source="LB_I5nbtP3hotRsRZlri-44" target="LB_I5nbtP3hotRsRZlri-43">
          <mxGeometry relative="1" as="geometry" />
        </mxCell>
        <mxCell id="LB_I5nbtP3hotRsRZlri-57" style="edgeStyle=orthogonalEdgeStyle;rounded=0;orthogonalLoop=1;jettySize=auto;html=1;exitX=0;exitY=0.5;exitDx=0;exitDy=0;entryX=1;entryY=0.5;entryDx=0;entryDy=0;" edge="1" parent="LB_I5nbtP3hotRsRZlri-26" source="LB_I5nbtP3hotRsRZlri-44" target="LB_I5nbtP3hotRsRZlri-49">
          <mxGeometry relative="1" as="geometry">
            <Array as="points">
              <mxPoint x="250" y="350" />
            </Array>
          </mxGeometry>
        </mxCell>
        <mxCell id="LB_I5nbtP3hotRsRZlri-58" style="edgeStyle=orthogonalEdgeStyle;rounded=0;orthogonalLoop=1;jettySize=auto;html=1;exitX=0;exitY=0.5;exitDx=0;exitDy=0;entryX=1;entryY=0.5;entryDx=0;entryDy=0;" edge="1" parent="LB_I5nbtP3hotRsRZlri-26" source="LB_I5nbtP3hotRsRZlri-44" target="LB_I5nbtP3hotRsRZlri-50">
          <mxGeometry relative="1" as="geometry">
            <Array as="points">
              <mxPoint x="250" y="410" />
            </Array>
          </mxGeometry>
        </mxCell>
        <mxCell id="LB_I5nbtP3hotRsRZlri-59" style="edgeStyle=orthogonalEdgeStyle;rounded=0;orthogonalLoop=1;jettySize=auto;html=1;exitX=0;exitY=0.5;exitDx=0;exitDy=0;entryX=1;entryY=0.5;entryDx=0;entryDy=0;" edge="1" parent="LB_I5nbtP3hotRsRZlri-26" source="LB_I5nbtP3hotRsRZlri-44" target="LB_I5nbtP3hotRsRZlri-51">
          <mxGeometry relative="1" as="geometry">
            <Array as="points">
              <mxPoint x="250" y="470" />
            </Array>
          </mxGeometry>
        </mxCell>
        <mxCell id="LB_I5nbtP3hotRsRZlri-44" value="Phase left" style="rhombus;whiteSpace=wrap;html=1;fillColor=#fff2cc;strokeColor=#d6b656;" vertex="1" parent="LB_I5nbtP3hotRsRZlri-26">
          <mxGeometry x="250" y="245" width="110" height="40" as="geometry" />
        </mxCell>
        <mxCell id="LB_I5nbtP3hotRsRZlri-47" value="&lt;b&gt;T&lt;/b&gt;" style="text;html=1;strokeColor=none;fillColor=none;align=center;verticalAlign=middle;whiteSpace=wrap;rounded=0;" vertex="1" parent="LB_I5nbtP3hotRsRZlri-26">
          <mxGeometry x="230" y="240" width="20" height="30" as="geometry" />
        </mxCell>
        <mxCell id="LB_I5nbtP3hotRsRZlri-48" value="Discard" style="shape=hexagon;perimeter=hexagonPerimeter2;whiteSpace=wrap;html=1;fixedSize=1;" vertex="1" parent="LB_I5nbtP3hotRsRZlri-26">
          <mxGeometry x="20" y="245" width="70" height="40" as="geometry" />
        </mxCell>
        <mxCell id="LB_I5nbtP3hotRsRZlri-49" value="Develop" style="shape=hexagon;perimeter=hexagonPerimeter2;whiteSpace=wrap;html=1;fixedSize=1;" vertex="1" parent="LB_I5nbtP3hotRsRZlri-26">
          <mxGeometry x="120" y="330" width="110" height="40" as="geometry" />
        </mxCell>
        <mxCell id="LB_I5nbtP3hotRsRZlri-50" value="Deploy" style="shape=hexagon;perimeter=hexagonPerimeter2;whiteSpace=wrap;html=1;fixedSize=1;" vertex="1" parent="LB_I5nbtP3hotRsRZlri-26">
          <mxGeometry x="120" y="390" width="110" height="40" as="geometry" />
        </mxCell>
        <mxCell id="LB_I5nbtP3hotRsRZlri-51" value="Combat" style="shape=hexagon;perimeter=hexagonPerimeter2;whiteSpace=wrap;html=1;fixedSize=1;" vertex="1" parent="LB_I5nbtP3hotRsRZlri-26">
          <mxGeometry x="120" y="450" width="110" height="40" as="geometry" />
        </mxCell>
        <mxCell id="LB_I5nbtP3hotRsRZlri-54" value="Draw II" style="shape=hexagon;perimeter=hexagonPerimeter2;whiteSpace=wrap;html=1;fixedSize=1;" vertex="1" parent="LB_I5nbtP3hotRsRZlri-26">
          <mxGeometry x="120" y="510" width="110" height="40" as="geometry" />
        </mxCell>
        <mxCell id="LB_I5nbtP3hotRsRZlri-55" value="Recruit" style="shape=hexagon;perimeter=hexagonPerimeter2;whiteSpace=wrap;html=1;fixedSize=1;" vertex="1" parent="LB_I5nbtP3hotRsRZlri-26">
          <mxGeometry x="120" y="570" width="110" height="40" as="geometry" />
        </mxCell>
        <mxCell id="LB_I5nbtP3hotRsRZlri-56" value="prevail" style="shape=hexagon;perimeter=hexagonPerimeter2;whiteSpace=wrap;html=1;fixedSize=1;" vertex="1" parent="LB_I5nbtP3hotRsRZlri-26">
          <mxGeometry x="120" y="630" width="110" height="40" as="geometry" />
        </mxCell>
      </root>
    </mxGraphModel>
  </diagram>
</mxfile>
